<svg xmlns="http://www.w3.org/2000/svg" viewBox="0 0 98 96" aria-hidden="true">
  <path fill="#181717" fill-rule="evenodd" clip-rule="evenodd" d="M48.9 0C21.9 0 0 22 0 49.2c0 21.8 14.1 40.2 33.6 46.7 2.5.5 3.4-1.1 3.4-2.4 0-1.2-.1-5.2-.1-9.4-13.7 3-16.6-5.9-16.6-5.9-2.2-5.8-5.5-7.3-5.5-7.3-4.5-3.1.3-3 .3-3 5 .4 7.6 5.2 7.6 5.2 4.4 7.6 11.6 5.4 14.4 4.1.4-3.2 1.7-5.4 3.1-6.6-10.9-1.3-22.4-5.5-22.4-24.5 0-5.4 1.9-9.8 5.1-13.3-.5-1.3-2.2-6.3.5-13.1 0 0 4.2-1.3 13.5 5.1 3.9-1.1 8.1-1.6 12.3-1.6s8.4.6 12.3 1.6c9.4-6.4 13.5-5.1 13.5-5.1 2.7 6.8 1 11.8.5 13.1 3.2 3.5 5.1 7.9 5.1 13.3 0 19.1-11.5 23.2-22.5 24.5 1.8 1.6 3.4 4.6 3.4 9.3 0 6.7-.1 12.1-.1 13.8 0 1.3.9 2.9 3.4 2.4C83.9 89.4 98 71 98 49.2 98 22 76 0 48.9 0z"/>
</svg>
